<svg id="Camada_1" data-name="Camada 1" xmlns="http://www.w3.org/2000/svg" viewBox="0 0 1000 1000"><defs><style>.cls-1{fill:#f89f4f;}.cls-2{fill:#f3872f;}.cls-3{fill:#a55b23;}</style></defs><title>TambuteteiLogoIcon</title><g id="_Grupo_" data-name="&lt;Grupo&gt;"><rect class="cls-1" x="81.48" y="41.15" width="837.05" height="129.23"/><rect class="cls-2" x="81.48" y="41.15" width="192.13" height="129.23"/><rect class="cls-3" x="274.38" y="597.1" width="451.24" height="54.38"/><rect class="cls-3" x="274.38" y="209.22" width="451.24" height="77.94"/><path d="M957.36,21.73V189.8a19.41,19.41,0,0,1-19.42,19.42H894.86V978.27a19.41,19.41,0,0,1-19.42,19.42H745a19.41,19.41,0,0,1-19.42-19.42v-288H274.38v288A19.41,19.41,0,0,1,255,997.69H124.56a19.41,19.41,0,0,1-19.42-19.42v-769H62.06A19.43,19.43,0,0,1,42.64,189.8V21.73A19.43,19.43,0,0,1,62.06,2.31H937.94A19.41,19.41,0,0,1,957.36,21.73ZM918.52,170.38V41.15h-837V170.38ZM856,958.85V209.22H764.46V958.85ZM725.62,651.47V597.1H274.38v54.37Zm0-93.21V326H274.38V558.26Zm0-271.1V209.22H274.38v77.94ZM235.54,958.85V209.22H144V958.85Z"/></g><rect class="cls-1" x="810.24" y="209.22" width="45.78" height="749.63"/><rect class="cls-1" x="189.76" y="209.22" width="45.78" height="749.63"/><rect class="cls-2" x="143.98" y="209.22" width="45.78" height="749.63"/><rect class="cls-2" x="764.46" y="209.22" width="45.78" height="749.63"/></svg>