<svg id="Camada_1" data-name="Camada 1" xmlns="http://www.w3.org/2000/svg" xmlns:xlink="http://www.w3.org/1999/xlink" viewBox="0 0 1080 1080"><defs><style>.cls-1,.cls-2{fill:url(#Gradiente_sem_nome_52);}.cls-2{opacity:0.4;}.cls-3{fill:#343587;}.cls-4,.cls-6{fill:#4872aa;}.cls-4,.cls-5{opacity:0.7;}</style><linearGradient id="Gradiente_sem_nome_52" x1="188.7" y1="643.63" x2="395.95" y2="436.37" gradientUnits="userSpaceOnUse"><stop offset="0" stop-color="#343587"/><stop offset="1" stop-color="#4979b7"/></linearGradient></defs><title>opendevufcg</title><path class="cls-1" d="M292.33,730.51a40.43,40.43,0,0,1-28.59-69L385.23,540,263.74,418.5a40.43,40.43,0,0,1,57.17-57.17L448.66,489.08a72,72,0,0,1,0,101.84L320.91,718.67A40.26,40.26,0,0,1,292.33,730.51Zm99.16-184.26Z"/><path class="cls-2" d="M292.33,730.51a40.27,40.27,0,0,1-28.59-11.84L136,590.92a72,72,0,0,1,0-101.84L263.74,361.33a40.43,40.43,0,1,1,57.17,57.17L199.42,540,320.91,661.5a40.43,40.43,0,0,1-28.58,69Z"/><path class="cls-3" d="M547.45,365.57a55.49,55.49,0,1,1-55.34,55.63A55.62,55.62,0,0,1,547.45,365.57Zm0,29a26.49,26.49,0,1,0,26.48,26.48A26.42,26.42,0,0,0,547.45,394.57Z"/><path class="cls-3" d="M630.6,365.57h46.76a40.91,40.91,0,0,1,40.83,40.83c0,22.35-18.2,40.69-40.24,40.69h-18.2v29.45H630.6Zm29.15,56.37h18a15.91,15.91,0,1,0,0-31.81h-18Z"/><path class="cls-3" d="M741.27,365.57h69v24.11h-39.8v18.05h35.22V432.3H770.42v20.42h39.8v23.82h-69Z"/><path class="cls-3" d="M920,476.54,867.63,424v52.53H838.48v-111h11.84l52.53,52.37V365.57H932v111Z"/><path class="cls-3" d="M506.89,492h43.17a58.23,58.23,0,0,1,0,116.46H506.89Zm30.44,86h12.89a27.57,27.57,0,1,0,0-55.13H537.33Z"/><path class="cls-3" d="M656.3,492h72.36v25.31H686.89v19h37V562h-37v21.43h41.77v25H656.3Z"/><path class="cls-3" d="M888.63,493.66,834.44,610.28h-14L766.11,493.66h30.75L827.45,560l30.75-66.31Z"/><path class="cls-4" d="M829.28,698.38h88.27v16H829.28Z"/><g class="cls-5"><path class="cls-6" d="M552.59,679.72a11.37,11.37,0,0,1-22.73,0V627.41h-23v52.65a34.33,34.33,0,1,0,68.66,0V627.41h-23Z"/><polygon class="cls-6" points="583.96 714.39 606.8 714.39 606.8 679.72 634.75 679.72 634.75 660.35 606.8 660.35 606.8 646.2 638.47 646.2 638.47 627.41 583.96 627.41 583.96 714.39"/><path class="cls-6" d="M690.36,691.31c-11.83,0-20.41-8.58-20.41-20.41s8.58-20.41,20.41-20.41A20.34,20.34,0,0,1,705,656.17l16-16.12a43,43,0,0,0-30.62-12.64,43.5,43.5,0,1,0,30.85,74.11l-16.23-16A19.9,19.9,0,0,1,690.36,691.31Z"/><path class="cls-6" d="M773,667.65V683h16.82A20.63,20.63,0,1,1,773,650.26a20.8,20.8,0,0,1,14.5,5.8l16.12-16a43.47,43.47,0,1,0,12.87,30.85v-3.25Z"/></g></svg>